<?xml version="1.0" standalone="no"?>
<!DOCTYPE svg PUBLIC "-//W3C//DTD SVG 20010904//EN"
 "http://www.w3.org/TR/2001/REC-SVG-20010904/DTD/svg10.dtd">
<svg version="1.0" xmlns="http://www.w3.org/2000/svg"
 width="460.000000pt" height="460.000000pt" viewBox="0 0 460.000000 460.000000"
 preserveAspectRatio="xMidYMid meet">
<metadata>
Created by potrace 1.14, written by Peter Selinger 2001-2017
</metadata>
<g transform="translate(0.000000,460.000000) scale(0.100000,-0.100000)"
fill="#000000" stroke="none">
<path d="M2295 3625 c-240 -45 -430 -125 -600 -253 -94 -71 -267 -252 -241
-252 2 0 51 47 108 103 105 106 166 155 273 218 252 150 559 209 855 164 358
-54 650 -236 878 -548 40 -55 124 -216 142 -272 7 -22 17 -46 23 -53 5 -7 8
-14 6 -15 -2 -2 -96 -41 -209 -86 -113 -46 -224 -91 -247 -102 -24 -10 -45
-19 -49 -19 -3 0 -26 -9 -52 -20 l-47 -20 0 -151 0 -151 35 -13 c19 -7 76 -30
125 -50 50 -20 117 -48 150 -60 33 -13 112 -45 177 -71 l116 -48 -20 -51 c-71
-184 -167 -333 -298 -466 -209 -211 -434 -325 -753 -379 -111 -20 -342 -8
-468 23 -263 65 -468 183 -652 377 -48 51 -90 90 -92 88 -9 -9 106 -136 179
-197 182 -152 349 -235 591 -293 121 -29 398 -31 520 -4 332 73 604 242 796
491 48 62 159 248 159 266 0 5 14 39 30 76 17 36 30 69 30 73 0 5 -13 13 -30
19 -43 15 -37 21 20 21 l50 0 0 -40 c0 -46 2 -47 38 -21 15 10 32 20 37 22 6
2 45 24 88 48 l77 45 -83 46 c-45 26 -99 57 -119 69 l-38 23 0 -42 0 -41 -212
3 c-184 3 -219 6 -253 23 -22 10 -73 32 -114 49 -40 17 -73 34 -72 39 0 4 1
23 1 42 l0 35 159 0 160 0 3 -44 3 -44 70 40 c39 22 86 49 105 60 19 11 39 23
43 28 8 7 -28 32 -108 75 -22 12 -57 32 -77 44 l-38 23 0 -36 0 -36 -154 0
c-85 0 -157 3 -159 8 -3 4 -7 20 -8 37 -4 28 0 31 66 58 39 17 95 40 126 53
53 23 69 24 258 24 l201 0 0 -39 0 -39 35 18 c20 10 41 23 48 28 7 5 39 24 72
41 33 18 64 36 68 40 7 7 -63 61 -78 61 -3 0 -24 12 -48 27 -45 29 -87 53 -93
53 -2 0 -4 -18 -4 -40 l0 -40 -52 0 -53 1 30 16 c17 8 32 17 34 19 11 10 -115
274 -166 348 -201 289 -478 477 -813 553 -145 32 -362 40 -485 18z"/>
<path d="M2330 3521 c-163 -24 -386 -109 -510 -195 -71 -49 -177 -141 -221
-192 l-40 -46 23 -16 c75 -52 110 -156 84 -246 -35 -119 -120 -176 -260 -176
-74 0 -74 0 -85 -31 -20 -58 -14 -72 41 -99 33 -16 62 -40 82 -68 29 -41 31
-50 31 -130 0 -88 -10 -119 -54 -162 -29 -29 -79 -60 -95 -60 -23 0 -20 -29
15 -141 l32 -99 86 0 c103 0 142 -17 184 -78 51 -75 34 -174 -41 -233 l-27
-21 85 -81 c380 -362 939 -440 1400 -195 225 120 399 298 516 527 51 100 54
94 -65 140 -42 16 -152 61 -246 99 l-170 70 -18 -41 c-73 -168 -258 -319 -435
-356 -68 -14 -226 -14 -294 0 -168 36 -338 168 -421 327 -50 94 -66 150 -73
252 -21 290 130 533 402 649 227 97 502 42 687 -137 53 -51 108 -127 132 -185
8 -20 22 -37 30 -37 8 0 45 13 82 29 93 39 337 138 401 161 17 7 32 15 32 18
0 14 -93 187 -131 243 -55 82 -215 242 -299 299 -126 87 -230 134 -400 182
-89 24 -128 29 -255 33 -82 2 -175 0 -205 -4z"/>
<path d="M942 3029 c-60 -30 -92 -80 -92 -144 0 -78 17 -95 95 -95 73 0 108
-13 130 -47 15 -23 18 -23 194 -23 191 0 229 7 274 49 84 77 66 211 -37 260
-39 19 -60 21 -282 21 -224 0 -242 -1 -282 -21z"/>
<path d="M2325 2846 c-122 -40 -195 -92 -269 -191 -82 -109 -116 -211 -116
-345 0 -68 6 -101 30 -168 71 -204 230 -335 449 -372 84 -14 177 -2 274 34
248 93 396 362 343 621 -42 206 -193 371 -390 425 -99 28 -228 26 -321 -4z
m300 -10 c206 -55 365 -232 394 -439 36 -256 -120 -509 -361 -584 -67 -22
-243 -24 -313 -4 -168 47 -318 198 -363 365 -21 78 -21 214 0 292 37 137 145
267 273 329 40 19 91 39 112 44 58 14 202 12 258 -3z"/>
<path d="M2532 2543 c-14 -27 -182 -448 -182 -456 0 -12 97 -7 108 6 6 6 33
71 61 142 29 72 56 139 61 150 23 49 60 150 60 162 0 21 -97 18 -108 -4z"/>
<path d="M2183 2418 c-125 -65 -133 -70 -133 -98 0 -28 7 -34 123 -92 174 -89
157 -87 157 -23 l0 55 -55 27 c-30 15 -55 30 -55 33 0 3 25 18 55 33 l55 27 0
55 c0 30 -3 54 -7 54 -5 -1 -68 -33 -140 -71z"/>
<path d="M2672 2433 l3 -55 53 -28 54 -28 -24 -16 c-13 -9 -38 -21 -56 -27
-31 -11 -32 -13 -32 -69 l0 -59 134 67 c134 67 135 67 135 102 l1 35 -135 67
-136 66 3 -55z"/>
<path d="M613 2730 c-45 -18 -56 -80 -22 -124 l20 -26 198 0 c194 0 198 0 219
23 30 32 29 81 -3 112 -24 25 -26 25 -207 24 -101 0 -193 -4 -205 -9z"/>
<path d="M524 2453 c-69 -34 -96 -147 -51 -214 12 -19 42 -44 67 -56 43 -23
51 -23 387 -23 375 0 386 1 441 58 68 70 43 202 -44 238 -52 22 -756 19 -800
-3z"/>
<path d="M4210 2420 l0 -40 -210 0 -210 0 0 -55 0 -55 210 0 210 0 0 -39 0
-39 33 17 c17 9 51 29 74 44 24 15 45 27 48 27 3 0 21 10 40 23 l34 23 -57 34
c-31 18 -73 43 -92 54 -84 51 -80 51 -80 6z"/>
<path d="M279 2043 c-20 -5 -49 -55 -49 -85 0 -13 11 -36 25 -51 l26 -27 410
0 410 0 24 26 c14 15 25 38 25 51 0 34 -29 80 -54 87 -24 7 -793 6 -817 -1z"/>
<path d="M885 1776 c-43 -18 -57 -40 -59 -87 -1 -34 5 -46 32 -70 l32 -29 318
0 c352 0 350 0 378 66 20 48 -2 99 -50 119 -49 20 -605 21 -651 1z"/>
</g>
</svg>
